<?xml version="1.0" encoding="UTF-8" standalone="no"?>
<svg
   xmlns:dc="http://purl.org/dc/elements/1.1/"
   xmlns:cc="http://creativecommons.org/ns#"
   xmlns:rdf="http://www.w3.org/1999/02/22-rdf-syntax-ns#"
   xmlns:svg="http://www.w3.org/2000/svg"
   xmlns="http://www.w3.org/2000/svg"
   xmlns:sodipodi="http://sodipodi.sourceforge.net/DTD/sodipodi-0.dtd"
   xmlns:inkscape="http://www.inkscape.org/namespaces/inkscape"
   version="1.1"
   width="110px"
   height="100px"
   id="svg3382"
   inkscape:version="0.48.4 r9939"
   sodipodi:docname="freifunk.svg">
  <metadata
     id="metadata3400">
    <rdf:RDF>
      <cc:Work
         rdf:about="">
        <dc:format>image/svg+xml</dc:format>
        <dc:type
           rdf:resource="http://purl.org/dc/dcmitype/StillImage" />
        <dc:title></dc:title>
      </cc:Work>
    </rdf:RDF>
  </metadata>
  <defs
     id="defs3398" />
  <sodipodi:namedview
     pagecolor="#ffffff"
     bordercolor="#666666"
     borderopacity="1"
     objecttolerance="10"
     gridtolerance="10"
     guidetolerance="10"
     inkscape:pageopacity="0"
     inkscape:pageshadow="2"
     inkscape:window-width="695"
     inkscape:window-height="480"
     id="namedview3396"
     showgrid="false"
     inkscape:zoom="2.77"
     inkscape:cx="55.227168"
     inkscape:cy="50.092883"
     inkscape:window-x="65"
     inkscape:window-y="24"
     inkscape:window-maximized="0"
     inkscape:current-layer="text3394" />
  <g
     id="g3402"
     transform="translate(-1.1045156,-6.207)">
    <path
       style="fill:none;stroke:#dc0067;stroke-width:1px"
       d="M 58,54 C 58,66.150264 48.150264,76 36,76 23.849736,76 14,66.150264 14,54 14,41.849736 23.849736,32 36,32 c 12.150264,0 22,9.849736 22,22 z"
       id="circle3384" />
    <path
       style="fill:none;stroke:#dc0067;stroke-width:1px"
       d="M 96,44 C 96,56.150264 86.150264,66 74,66 61.849736,66 52,56.150264 52,44 52,31.849736 61.849736,22 74,22 c 12.150264,0 22,9.849736 22,22 z"
       id="circle3386" />
    <path
       style="fill:none;stroke:#dc0067;stroke-width:6px"
       d="M 103,44 C 103,60.016258 90.016258,73 74,73 57.983742,73 45,60.016258 45,44 45,27.983742 57.983742,15 74,15 c 16.016258,0 29,12.983742 29,29 z"
       id="circle3388" />
    <path
       style="fill:#ffcb05"
       d="m 30,52 -4,4 5,0 6,-6 -6,-6 -5,0 4,4 -8,0 0,4 z"
       id="polygon3390" />
    <path
       style="fill:#ffcb05"
       d="m 81,59 -6,-6 13,0 0,-6 -13,0 6,-6 -8,0 -9,9 9,9 z"
       id="polygon3392" />
    <g
       style="font-size:18px;font-weight:bold;text-anchor:middle;font-family:helvetica"
       id="text3394">
      <path
         d="m 11.591031,90.478 -1.494,0 0,-0.954 c 0,-0.503999 0.216001,-0.756 0.684,-0.756 0.216,0 0.504,0.018 0.72,0.054 l 0,-1.89 c -0.467999,-0.036 -1.098,-0.054 -1.44,-0.054 -1.6739981,0 -2.4839998,0.792002 -2.4839998,2.43 l 0,1.17 -1.368,0 0,1.674 1.368,0 0,7.848 2.5199998,0 0,-7.848 1.494,0 0,-1.674"
         style="font-size:18px;font-weight:bold;text-anchor:middle;font-family:helvetica"
         id="path3013" />
      <path
         d="m 13.10275,90.28 0,9.72 2.52,0 0,-5.166 c 0,-1.475999 0.738001,-2.214 2.214,-2.214 0.27,0 0.45,0.018 0.792,0.072 l 0,-2.556 c -0.144,-0.018 -0.234,-0.018 -0.306,-0.018 -1.151999,0 -2.160001,0.756001 -2.7,2.07 l 0,-1.908 -2.52,0"
         style="font-size:18px;font-weight:bold;text-anchor:middle;font-family:helvetica"
         id="path3015" />
      <path
         d="m 28.396844,95.932 c 0.018,-0.216 0.018,-0.306 0.018,-0.432 0,-0.971999 -0.144,-1.872001 -0.378,-2.556 -0.648,-1.763998 -2.214002,-2.826 -4.176,-2.826 -2.789997,0 -4.5,2.016003 -4.5,5.274 0,3.113997 1.692003,5.022 4.446,5.022 2.177998,0 3.942,-1.242002 4.5,-3.15 l -2.484,0 c -0.306,0.773999 -1.008001,1.224 -1.926,1.224 -0.72,0 -1.296001,-0.306001 -1.656,-0.846 -0.234,-0.36 -0.324,-0.792001 -0.36,-1.71 l 6.516,0 m -6.48,-1.674 c 0.162,-1.475999 0.792001,-2.214 1.908,-2.214 0.629999,0 1.206,0.306001 1.566,0.81 0.234,0.36 0.342,0.738001 0.396,1.404 l -3.87,0"
         style="font-size:18px;font-weight:bold;text-anchor:middle;font-family:helvetica"
         id="path3017" />
      <path
         d="m 32.710375,90.28 -2.52,0 0,9.72 2.52,0 0,-9.72 m 0,-3.402 -2.52,0 0,2.25 2.52,0 0,-2.25"
         style="font-size:18px;font-weight:bold;text-anchor:middle;font-family:helvetica"
         id="path3019" />
      <path
         d="m 39.610562,90.478 -1.494,0 0,-0.954 c 0,-0.503999 0.216001,-0.756 0.684,-0.756 0.216,0 0.504001,0.018 0.72,0.054 l 0,-1.89 c -0.467999,-0.036 -1.098,-0.054 -1.44,-0.054 -1.673998,0 -2.484,0.792002 -2.484,2.43 l 0,1.17 -1.367999,0 0,1.674 1.367999,0 0,7.848 2.52,0 0,-7.848 1.494,0 0,-1.674"
         style="font-size:18px;font-weight:bold;text-anchor:middle;font-family:helvetica"
         id="path3021" />
      <path
         d="m 49.726281,100 0,-9.72 -2.52,0 0,6.084 c 0,1.151999 -0.810001,1.908 -2.034,1.908 -1.079999,0 -1.62,-0.576001 -1.62,-1.746 l 0,-6.246 -2.52,0 0,6.768 c 0,2.141998 1.188002,3.366 3.258,3.366 1.313999,0 2.196001,-0.486001 2.916,-1.566 l 0,1.152 2.52,0"
         style="font-size:18px;font-weight:bold;text-anchor:middle;font-family:helvetica"
         id="path3023" />
      <path
         d="m 52.126187,90.28 0,9.72 2.520001,0 0,-5.832 c 0,-1.151999 0.810001,-1.908 2.034,-1.908 1.079998,0 1.619999,0.594001 1.619999,1.746 l 0,5.994 2.520001,0 0,-6.516 c 0,-2.141998 -1.188003,-3.366 -3.258001,-3.366 -1.313998,0 -2.196,0.486001 -2.915999,1.566 l 0,-1.404 -2.520001,0"
         style="font-size:18px;font-weight:bold;text-anchor:middle;font-family:helvetica"
         id="path3025" />
      <path
         d="m 65.578094,94.06 0,-7.182 -2.52,0 0,13.122 2.52,0 0,-3.186 1.008,-1.098 2.322,4.284 2.952,0 -3.546,-6.048 3.312,-3.672 -2.862,0 -3.186,3.78"
         style="font-size:18px;font-weight:bold;text-anchor:middle;font-family:helvetica"
         id="path3027" />
      <path
         d="m 75.867625,97.372 -2.7,0 0,2.628 2.7,0 0,-2.628"
         style="font-size:18px;font-weight:bold;text-anchor:middle;font-family:helvetica"
         id="path3029" />
      <path
         d="m 78.141812,90.28 0,9.72 2.52,0 0,-5.832 c 0,-1.151999 0.810002,-1.908 2.034001,-1.908 1.079998,0 1.62,0.594001 1.62,1.746 l 0,5.994 2.52,0 0,-6.516 c 0,-2.141998 -1.188003,-3.366 -3.258001,-3.366 -1.313998,0 -2.196,0.486001 -2.916,1.566 l 0,-1.404 -2.52,0"
         style="font-size:18px;font-weight:bold;text-anchor:middle;font-family:helvetica"
         id="path3031" />
      <path
         d="m 97.443719,95.932 c 0.018,-0.216 0.018,-0.306 0.018,-0.432 0,-0.971999 -0.144,-1.872001 -0.378,-2.556 -0.648,-1.763998 -2.214002,-2.826 -4.176,-2.826 -2.789997,0 -4.5,2.016003 -4.5,5.274 0,3.113997 1.692003,5.022 4.446,5.022 2.177998,0 3.942,-1.242002 4.5,-3.15 l -2.484,0 c -0.306,0.773999 -1.008001,1.224 -1.926,1.224 -0.72,0 -1.296001,-0.306001 -1.656,-0.846 -0.234,-0.36 -0.324,-0.792001 -0.36,-1.71 l 6.516,0 m -6.48,-1.674 c 0.162,-1.475999 0.792001,-2.214 1.908,-2.214 0.629999,0 1.206,0.306001 1.566,0.81 0.234,0.36 0.342,0.738001 0.396,1.404 l -3.87,0"
         style="font-size:18px;font-weight:bold;text-anchor:middle;font-family:helvetica"
         id="path3033" />
      <path
         d="m 103.44925,90.478 -1.404,0 0,-2.61 -2.52,0 0,2.61 -1.242,0 0,1.674 1.242,0 0,5.976 c 0,1.529998 0.81,2.286 2.466,2.286 0.558,0 1.008,-0.054 1.458,-0.198 l 0,-1.764 c -0.252,0.036 -0.396,0.054 -0.576,0.054 -0.666,0 -0.828,-0.198001 -0.828,-1.062 l 0,-5.292 1.404,0 0,-1.674"
         style="font-size:18px;font-weight:bold;text-anchor:middle;font-family:helvetica"
         id="path3035" />
    </g>
  </g>
</svg>
